<?xml version="1.0" encoding="UTF-8"?>
<svg width="39.688mm" height="39.688mm" version="1.1" viewBox="0 0 39.688 39.688" xmlns="http://www.w3.org/2000/svg" xmlns:cc="http://creativecommons.org/ns#" xmlns:dc="http://purl.org/dc/elements/1.1/" xmlns:rdf="http://www.w3.org/1999/02/22-rdf-syntax-ns#">
 <metadata>
  <rdf:RDF>
   <cc:Work rdf:about="">
    <dc:format>image/svg+xml</dc:format>
    <dc:type rdf:resource="http://purl.org/dc/dcmitype/StillImage"/>
    <dc:title/>
   </cc:Work>
  </rdf:RDF>
 </metadata>
 <g transform="translate(-37.242 -81.79)">
  <g fill="#e50000">
   <g transform="matrix(1 0 0 1 .075037 -.77978)" shape-rendering="auto">
    <path transform="scale(.26458)" d="m144.25 312.07a3.779 3.779 0 0 0-3.7793 3.7793v142.44a3.779 3.779 0 0 0 3.7793 3.7793h142.44a3.779 3.779 0 0 0 3.7793-3.7793v-89.998a3.779 3.779 0 0 0-3.7793-3.7793h-48.664v-48.664a3.7786 3.7786 0 0 0-0.28321-1.4336 3.7786 3.7786 0 0 0-0.38867-0.7168 3.7786 3.7786 0 0 0-0.0976-0.13281 3.7786 3.7786 0 0 0-0.32032-0.3711 3.7786 3.7786 0 0 0-0.23828-0.22265 3.7786 3.7786 0 0 0-0.12695-0.10352 3.7786 3.7786 0 0 0-0.26758-0.18945 3.7786 3.7786 0 0 0-0.72656-0.36719 3.7786 3.7786 0 0 0-0.1543-0.0547 3.7786 3.7786 0 0 0-0.15625-0.0469 3.7786 3.7786 0 0 0-0.1582-0.041 3.7786 3.7786 0 0 0-0.32227-0.0605 3.7786 3.7786 0 0 0-0.16211-0.0195 3.7786 3.7786 0 0 0-0.37695-0.0195zm3.7793 7.5586h82.439v48.664a3.779 3.779 0 0 0 3.7793 3.7793h48.664v82.439h-134.88z" color="#000000" color-rendering="auto" dominant-baseline="auto" fill-rule="evenodd" image-rendering="auto" solid-color="#000000" stop-color="#000000" style="font-feature-settings:normal;font-variant-alternates:normal;font-variant-caps:normal;font-variant-east-asian:normal;font-variant-ligatures:normal;font-variant-numeric:normal;font-variant-position:normal;font-variation-settings:normal;inline-size:0;isolation:auto;mix-blend-mode:normal;paint-order:normal;shape-margin:0;shape-padding:0;text-decoration-color:#000000;text-decoration-line:none;text-decoration-style:solid;text-indent:0;text-orientation:mixed;text-transform:none;white-space:normal"/>
    <path d="m62.686 82.861-1.4141 1.4141 13.875 13.875 1.4141-1.4141z" color="#000000" color-rendering="auto" dominant-baseline="auto" image-rendering="auto" solid-color="#000000" stop-color="#000000" style="font-feature-settings:normal;font-variant-alternates:normal;font-variant-caps:normal;font-variant-east-asian:normal;font-variant-ligatures:normal;font-variant-numeric:normal;font-variant-position:normal;font-variation-settings:normal;inline-size:0;isolation:auto;mix-blend-mode:normal;shape-margin:0;shape-padding:0;text-decoration-color:#000000;text-decoration-line:none;text-decoration-style:solid;text-indent:0;text-orientation:mixed;text-transform:none;white-space:normal"/>
   </g>
   <path transform="scale(.26458)" d="m144.54 388.83v50h100v-50zm15.801 10h8.7598c3.3222 0 5.8604 0.75776 7.6152 2.2715 0.89752 0.79035 1.5554 1.7539 1.9707 2.8926 0.41527 1.1252 0.62305 2.3984 0.62305 3.8184 0 2.9471-0.85761 5.1777-2.5723 6.6914-1.7013 1.5137-4.2476 2.2695-7.6367 2.2695h-4.7012v12.057h-4.0586zm24.051 0h6.0898c4.5814 0 7.9568 1.2182 10.127 3.6562s3.2559 6.2291 3.2559 11.373c0 5.1038-1.0857 8.8764-3.2559 11.314s-5.5456 3.6562-10.127 3.6562h-6.0898zm26.686 0h17.662v3.416h-13.584v9.2422h12.318v3.416h-12.318v13.926h-4.0781zm-46.678 3.3359v11.271h4.7012c1.0047 0 1.8684-0.13247 2.5918-0.40039 0.72338-0.26789 1.3263-0.63045 1.8086-1.0859 1.0449-0.99125 1.5684-2.3785 1.5684-4.1602 0-1.795-0.52349-3.1803-1.5684-4.1582-1.0181-0.97787-2.4848-1.4668-4.4004-1.4668zm24.072 0v23.328h1.9297c3.4293 0 5.8128-0.84336 7.1523-2.5312 1.353-1.6744 2.0293-4.7219 2.0293-9.1426 0-4.434-0.67018-7.4815-2.0098-9.1426-0.68319-0.85735-1.6345-1.4868-2.8535-1.8887-1.2056-0.41525-2.6439-0.62305-4.3184-0.62305z" fill-rule="evenodd" style="paint-order:normal"/>
  </g>
  <g fill="#000000" font-family="sans-serif" font-size="10.583px">
   <text style="line-height:1.25;shape-inside:url(#rect889);white-space:pre" xml:space="preserve"/>
   <text style="line-height:1.25;shape-inside:url(#rect899);white-space:pre" xml:space="preserve"/>
   <text style="line-height:1.25;shape-inside:url(#rect905);white-space:pre" xml:space="preserve"/>
   <text style="line-height:1.25;shape-inside:url(#rect911);white-space:pre" xml:space="preserve"/>
   <text x="41.237511" y="111.13412" stroke-width=".26458" style="line-height:1.25" xml:space="preserve"><tspan x="41.237511" y="111.13412" stroke-width=".26458"/></text>
  </g>
 </g>
</svg>
